<?xml version="1.0" standalone="no"?><!DOCTYPE svg PUBLIC "-//W3C//DTD SVG 1.1//EN" "http://www.w3.org/Graphics/SVG/1.1/DTD/svg11.dtd"><svg t="1618843614957" class="icon" viewBox="0 0 1931 1024" version="1.1" xmlns="http://www.w3.org/2000/svg" p-id="9775" xmlns:xlink="http://www.w3.org/1999/xlink" width="377.1484375" height="200"><defs><style type="text/css"></style></defs><path d="M1859.540988 580.104843c-57.876922 4.986319-108.986696-15.048-158.226601-42.116591-31.787786-17.808284-62.328993-36.328899-95.274318-52.445396-77.19891-38.020686-151.370412-32.767242-224.384375 12.109633a670.570924 670.570924 0 0 0-69.63039 50.575526c-59.123502 47.904283-125.5484 76.219454-202.74731 74.527667a264.096848 264.096848 0 0 1-140.329276-44.520709c1.157538-1.86987 1.513704-3.027408 2.136994-3.383574 49.150863-28.404213 60.28104-77.287951 37.219313-131.15801s-54.226224-96.788022-114.151098-111.925063a134.808708 134.808708 0 0 0-94.383904 6.678106c-6.945231 3.383574-9.883597 2.849325-13.890462-4.006863-31.520662-54.226224-81.027691-74.438626-140.863524-67.315313s-106.849702 33.835739-129.110057 92.603076a15.493207 15.493207 0 0 1-13.000047 10.06168C448.857792 384.12468 409.590526 453.309863 424.193319 507.536087a84.322224 84.322224 0 0 0 115.753844 57.520756c9.527432-3.561657 13.267171-3.027408 17.808284 6.410982 58.856378 118.692211 157.870435 178.082837 286.980492 194.021252 47.459076 5.698651 95.185277 7.479479 142.46627 10.239763-102.397631 18.698698-204.795263 34.726153-307.460019 2.047952-50.753609-16.650745-92.692117-47.637159-130.890885-83.253726-50.664567-47.459076-106.849702-87.616756-175.411595-102.486673-66.424898-14.335668-128.219643 3.383574-182.62395 42.828922-29.027502 21.013775-30.630248 48.438532-9.527432 77.555076 2.315077-3.917822 0.534249-7.657562 0-11.30826-6.143858-36.328899 13.623337-61.705703 50.664568-62.328993 33.746698-0.890414 62.952283 10.774012 81.294815 40.424804s13.890461 60.370082-2.136994 89.041418c-21.102816 37.842603-56.363218 56.541301-97.945561 64.64407-47.548118 9.349349-94.11678 8.191811-133.562128-23.595975-43.808378-34.904236-57.342674-83.609892-56.630342-137.123785a119.938791 119.938791 0 0 1 15.137041-60.904331c3.561657-5.965775 1.513704-8.904142-2.671242-12.643881-62.328993-55.383762-31.698745-117.534673 17.808283-147.719714a116.822341 116.822341 0 0 1 80.137277-19.411029 60.28104 60.28104 0 0 1 32.232994 15.315124C231.507689 507.536087 347.08345 478.597625 388.843875 434.254999c23.8631-25.465846 25.198721-54.849514 16.116497-86.01401a66.602981 66.602981 0 0 0-53.424851-50.041278 60.90433 60.90433 0 0 0-55.20568 12.020592c11.219219 0.890414 22.349396 0 33.479574 1.157538a65.979691 65.979691 0 0 1 57.431715 46.746745c8.458935 29.917917 0.979456 56.096094-23.774059 73.904378a136.589536 136.589536 0 0 1-126.260732 20.034319c-37.486437-12.020592-49.150863-44.520709-54.582389-78.801656-8.904142-57.609798 17.808284-95.986649 77.020827-110.678483 12.109633-3.027408 15.67129-4.808237 12.020591-19.41103-9.972639-39.445348 8.369893-71.233135 36.596024-96.609939 38.733017-34.815195 83.520851-47.280993 134.274459-28.582295 4.719195 1.780828 7.390438 2.671243 10.150722-3.650698 26.712426-63.486532 75.061916-100.260637 142.46627-112.103147 0.62329 0 1.068497-1.424663 1.602745-2.226035h6.054817a86.192093 86.192093 0 0 0 36.328898 0h6.054817a69.630389 69.630389 0 0 0 23.774059 6.945231 190.904802 190.904802 0 0 1 84.055099 51.644023c6.054816 6.321941 9.616473 5.965775 16.116497 1.602745a108.897655 108.897655 0 0 1 50.486484-18.520615 87.527715 87.527715 0 0 1 89.664709 43.541254A157.336187 157.336187 0 0 1 929.147204 204.795263a78.089324 78.089324 0 0 1-59.746792 60.815289 67.493395 67.493395 0 0 1-72.924922-20.212402c-26.712426-30.096-23.595976-67.493395 8.458935-92.068827 6.589065-5.075361 13.80142-8.904142 22.260355-15.137041-34.815195 1.958911-57.520756 18.520615-65.801609 46.390579a87.082507 87.082507 0 0 0 29.116544 88.061963c41.137135 33.301491 140.240234 25.10968 160.274554-56.630342a260.624233 260.624233 0 0 0 6.500023-43.185088c2.49316-33.479573 19.232946-56.808425 44.52071-63.130366a77.020827 77.020827 0 0 1 80.137277 32.856283c5.520568 9.43839 9.794556 7.835645 17.808283 5.075361 42.205632-15.137041 82.808519-13.80142 117.623714 17.184994s36.506982 69.630389 26.712426 111.212732c-0.890414 3.917822-2.226035 7.657562-3.383574 11.575384a13.534296 13.534296 0 0 0 0 2.226036c12.198674 1.513704 24.664473 0 36.952189 2.760284a97.233229 97.233229 0 0 1 75.685206 79.06878c6.232899 38.822059-10.417846 72.212591-47.370035 92.959241-28.671337 16.205538-58.945419 25.643929-92.514034 19.411029a66.424898 66.424898 0 0 1-49.328946-96.966105 46.657703 46.657703 0 0 1 44.520709-28.582295 55.739928 55.739928 0 0 1 50.486485 27.691881 30.185041 30.185041 0 0 1-1.513704 32.945325c17.808284 1.691787 27.959005-12.465799 22.61652-31.787787a73.281088 73.281088 0 0 0-83.431809-50.931691c-42.02755 8.904142-72.657798 41.938508-71.233135 78.178365 1.602746 52.178271 31.431621 88.151005 78.623572 93.582531 55.650887 6.500024 105.870247-6.589065 145.048471-48.082366 57.431715-60.726248 206.665133-77.020827 279.144848-31.075455a167.486909 167.486909 0 0 1 36.150816 27.246674c51.020733 56.808425 116.822341 89.575667 186.986979 115.219596l8.904142 3.294533a3.205491 3.205491 0 0 1-0.890414 5.342485z" fill="#1B4D9E" p-id="9776"></path><path d="M1931.84262 594.885718c-56.185135 25.73297-114.062057 42.828922-176.836258 37.486438a230.439192 230.439192 0 0 1-72.390673-20.301444c-46.657703-20.212402-92.8702-41.582343-144.158057-48.082366-36.685065-4.541112-71.233135-0.445207-102.842838 20.835692-26.712426 17.808284-52.890603 35.082319-78.623573 53.424851-72.479715 52.08923-154.843027 78.178366-241.302245 94.829111a709.303941 709.303941 0 0 1-326.425841-9.527432 324.823095 324.823095 0 0 1-215.30215-178.082837c-3.828781-7.657562-7.657562-15.226083-11.753467-23.506935a120.740164 120.740164 0 0 1-34.993278 21.548024c-37.575479 12.020592-72.924922-15.493207-75.863289-59.123502s24.041183-79.513987 71.233135-91.356496c5.431527-1.335621 9.883597-1.602746 11.753468-8.904142 11.93155-47.370035 47.370035-71.233135 90.555122-84.411265 60.548165-18.520615 116.555217 2.938367 153.863572 57.520757a16.205538 16.205538 0 0 0 22.794603 7.479479 140.952566 140.952566 0 0 1 188.500683 112.192188c7.390438 43.630295-26.178177 86.459218-77.020827 97.94556-47.904283 10.952094-82.541395-23.23981-71.856425-71.233135a41.760425 41.760425 0 0 1 44.52071-34.904236c21.548023 1.691787 34.459029 16.116497 36.41794 40.602887a44.520709 44.520709 0 0 0 0.62329 4.452071c5.609609 0 6.232899-4.006864 7.301396-7.835645a37.219313 37.219313 0 0 0 0-17.808284c-10.506887-53.424851-48.082366-59.924875-85.568803-32.856283A80.582484 80.582484 0 0 0 821.139963 552.056796c17.808284 41.760425 50.041277 61.616662 92.959241 50.664567a83.966058 83.966058 0 0 1 72.301632 13.17813c54.760472 35.17136 115.753844 36.863147 178.082838 26.712426A333.549154 333.549154 0 0 0 1327.696594 569.86508c13.979503-11.575384 28.22613-22.794603 42.383715-34.191905 78.000283-62.328993 178.706127-71.233135 261.69273-11.93155 46.123455 32.945325 95.719525 59.657751 152.616992 70.075596a382.8781 382.8781 0 0 0 124.657986 0.62329l16.472662-2.226035c2.938367-0.534249 6.410982-2.760284 6.321941 2.671242zM1702.471925 459.631803a257.418741 257.418741 0 0 0-84.233182-57.342673 345.569746 345.569746 0 0 0-120.473039-25.73297c-35.616567-1.335621-53.424851-17.808284-61.260496-53.424852s6.945231-71.233135 33.92478-84.856472a34.904236 34.904236 0 0 1 34.280947 0.534249c-14.246627 12.911006-28.760378 24.931597-30.096 45.233041a35.616567 35.616567 0 0 0 10.68497 28.671336c0-39.356307 20.657609-66.246816 50.130319-87.26059a87.705797 87.705797 0 0 1 76.308496-13.445254A71.233135 71.233135 0 0 1 1657.416968 311.644965c-13.712378 29.383668-70.075597 38.109727-92.068827 14.068545a32.143952 32.143952 0 0 1-6.410983-36.417941 32.767242 32.767242 0 0 1 31.698746-20.212402c14.42471-0.62329 17.808284 12.465799 26.712425 21.458982a33.479573 33.479573 0 0 0-11.664426-34.013822 32.054911 32.054911 0 0 0-34.459029-2.760284 49.150863 49.150863 0 0 0-30.541206 43.27413 47.10291 47.10291 0 0 0 22.883644 46.212496 57.164591 57.164591 0 0 0 25.198722 9.794556c39.53439 3.917822 66.246816 26.712426 89.041418 56.986508a132.048424 132.048424 0 0 1 24.664473 49.59607zM909.825216 944.55137a81.918105 81.918105 0 0 1-47.815242-12.911006c-9.616473-5.431527-18.965822-11.219219-28.849419-16.205538a64.911194 64.911194 0 0 0-67.849561 3.739739 189.658222 189.658222 0 0 0-21.102817 15.582248 91.089371 91.089371 0 0 1-61.349537 22.972686 79.513987 79.513987 0 0 1-42.472757-13.890461c0-0.62329 0-0.890414 0.712332-1.068497 14.780876-8.904142 17.808284-23.774059 11.219218-40.424804s-16.383621-29.828875-34.54807-34.459029a39.623431 39.623431 0 0 0-28.582296 2.047953c-2.047953 0.979456-2.938367 0.890414-4.184946-1.24658a39.890556 39.890556 0 0 0-42.65084-20.746651 43.808378 43.808378 0 0 0-39.000141 28.493254 4.541112 4.541112 0 0 1-3.917823 3.11645 37.219313 37.219313 0 0 0-23.774058 42.472757 25.376804 25.376804 0 0 0 34.904236 17.808283c2.849325-1.068497 4.006864-0.979456 5.431526 1.958912a104.17846 104.17846 0 0 0 86.815384 59.835833c14.42471 1.780828 28.84942 2.315077 43.274129 3.11645-30.986414 5.787692-62.328993 10.774012-93.048282 0.623289a105.42504 105.42504 0 0 1-39.801515-25.911052 113.794933 113.794933 0 0 0-53.424851-31.609704 66.51394 66.51394 0 0 0-55.205679 13.267171 15.404165 15.404165 0 0 0-2.938367 23.863101c0.712331-1.157538 0-2.315077 0-3.472616a15.048 15.048 0 0 1 15.315124-19.321988 25.822011 25.822011 0 0 1 23.952141 39.890556 40.424804 40.424804 0 0 1-29.472709 19.945278 46.212496 46.212496 0 0 1-40.691929-6.945231 50.486484 50.486484 0 0 1-17.095952-42.294674 37.575479 37.575479 0 0 1 4.541112-18.787739c1.068497-1.780828 0-2.760284-0.801372-3.917823-18.787739-17.006911-9.527432-36.239857 5.342485-45.500164a34.726153 34.726153 0 0 1 24.308307-5.965776 17.808284 17.808284 0 0 1 9.794556 4.719196c19.945278 18.698698 54.849514 9.794556 67.493395-3.917823a25.822011 25.822011 0 0 0 4.897279-26.712425 20.479526 20.479526 0 0 0-16.116497-15.404166 17.808284 17.808284 0 0 0-16.739787 3.73974h10.150722a19.856236 19.856236 0 0 1 17.808283 14.42471 19.589112 19.589112 0 0 1-7.123313 22.705561 40.691928 40.691928 0 0 1-38.28781 6.321941c-11.30826-3.650698-14.869917-13.80142-16.472663-24.308307a27.869964 27.869964 0 0 1 23.328852-34.102864c3.650698-0.979456 4.719195-1.513704 3.561657-5.965775A29.828875 29.828875 0 0 1 440.487898 810.27691a37.219313 37.219313 0 0 1 40.602887-8.904142c1.424663 0.534249 2.226035 0.801373 3.027408-1.157538a54.58239 54.58239 0 0 1 43.27413-34.548071s0-0.445207 0.534248-0.712331h1.780829a25.643929 25.643929 0 0 0 11.041136 0h1.780828a20.479526 20.479526 0 0 0 7.212355 2.136994A56.808425 56.808425 0 0 1 575.029482 783.564485c1.86987 1.958911 2.938367 1.86987 4.897278 0.534248a31.965869 31.965869 0 0 1 15.315124-5.787692A26.712426 26.712426 0 0 1 622.399517 792.468626a49.59607 49.59607 0 0 1 5.965775 36.774106 23.952142 23.952142 0 0 1-18.253491 18.876781 20.212402 20.212402 0 0 1-21.993231-6.232899 18.431574 18.431574 0 0 1 2.49316-28.404213c2.047953-1.602746 4.184947-2.938367 6.767148-4.630154a19.945278 19.945278 0 0 0-19.945278 14.246627 27.335716 27.335716 0 0 0 8.904142 27.157633 31.609704 31.609704 0 0 0 48.616615-17.808284 83.253726 83.253726 0 0 0 1.958911-13.356212 19.678154 19.678154 0 0 1 13.623337-19.41103 22.972686 22.972686 0 0 1 24.219266 10.061681c1.691787 2.938367 3.027408 2.49316 5.342485 1.602745a31.698745 31.698745 0 0 1 43.630295 39.623431c0 1.157538-0.712331 2.315077-1.068497 3.561657a3.11645 3.11645 0 0 1 0 0.62329c3.650698 0.534249 7.479479 0 11.219219 0.890414a29.828875 29.828875 0 0 1 22.883644 24.397349 26.712426 26.712426 0 0 1-14.335668 28.671337 40.335763 40.335763 0 0 1-28.048047 5.965775 20.479526 20.479526 0 0 1-14.869917-29.917917 13.979503 13.979503 0 0 1 13.356213-8.904142 16.91787 16.91787 0 0 1 15.315124 8.904142 9.705515 9.705515 0 0 1 0 10.150722c5.431527 0.534249 8.904142-3.828781 6.856189-9.794556a22.171313 22.171313 0 0 0-25.911053-16.027455 25.376804 25.376804 0 0 0-21.637064 24.041183 26.712426 26.712426 0 0 0 23.774059 28.849419 48.794697 48.794697 0 0 0 43.897419-14.780875c17.808284-18.698698 62.328993-23.774059 84.500306-9.616473a50.21936 50.21936 0 0 1 10.863053 8.904141 135.699122 135.699122 0 0 0 56.630343 35.616568l2.582201 0.979455a0.979456 0.979456 0 0 1 0.089041 1.068498z" fill="#1B4D9E" p-id="9777"></path><path d="M931.729405 949.181523a103.55517 103.55517 0 0 1-53.424851 11.486343 67.13723 67.13723 0 0 1-21.904189-6.232899 156.89098 156.89098 0 0 0-43.630295-14.780876 42.561798 42.561798 0 0 0-31.075455 6.410983c-7.924686 5.431527-16.027455 10.774012-23.774059 16.472662a178.082837 178.082837 0 0 1-73.013963 29.294627 211.651452 211.651452 0 0 1-98.746934-3.027408 98.746933 98.746933 0 0 1-65.178318-54.849514l-3.561657-7.212355a35.616567 35.616567 0 0 1-10.595929 6.678106 17.808284 17.808284 0 0 1-22.883644-18.253491 26.712426 26.712426 0 0 1 21.548023-28.137088c1.691787-0.445207 3.027408-0.534249 3.561657-2.760284a36.061775 36.061775 0 0 1 27.424757-26.000094 39.445348 39.445348 0 0 1 46.568662 17.808284 4.808237 4.808237 0 0 0 6.856189 2.315076 42.472757 42.472757 0 0 1 56.986508 34.548071 27.959005 27.959005 0 0 1-23.23981 30.274082 17.274035 17.274035 0 0 1-21.369941-22.082272 12.55484 12.55484 0 0 1 13.356213-10.68497 11.753467 11.753467 0 0 1 11.041136 12.465799 6.856189 6.856189 0 0 1 0 1.335621c1.780828 0 1.958911-1.157538 2.226035-2.404118a11.575384 11.575384 0 0 0 0-5.520568c-3.205491-16.383621-14.602793-18.431574-25.911053-10.150722a25.287763 25.287763 0 0 0-7.123313 29.917917 22.705562 22.705562 0 0 0 28.137088 15.582248 24.753514 24.753514 0 0 1 21.815148 4.095905 73.45917 73.45917 0 0 0 53.424851 8.280852 100.349679 100.349679 0 0 0 49.417987-22.61652l12.821965-10.595929a62.328993 62.328993 0 0 1 79.157821-3.650698 114.774389 114.774389 0 0 0 46.212496 21.548023 112.459312 112.459312 0 0 0 37.842603 0l4.98632-0.712331c1.068497 0.089041 2.047953-0.534249 2.047952 1.157538zM862.36614 907.421098a78.712614 78.712614 0 0 0-25.554887-17.808284 100.527762 100.527762 0 0 0-36.41794-7.924686 17.808284 17.808284 0 0 1-18.520615-16.383621 23.685017 23.685017 0 0 1 10.239763-26.178177 10.595929 10.595929 0 0 1 10.417846 0 21.548023 21.548023 0 0 0-8.904142 13.979503 11.130177 11.130177 0 0 0 3.294532 8.904141 32.143952 32.143952 0 0 1 15.137041-26.712425 26.712426 26.712426 0 0 1 23.061728-4.184947 22.171313 22.171313 0 0 1 13.890461 30.452165 19.054864 19.054864 0 0 1-27.869964 4.36303 10.239763 10.239763 0 0 1 7.568521-17.274035c4.273988 0 5.431527 3.828781 8.102769 6.589065a10.417846 10.417846 0 0 0-3.561657-10.506888 9.616473 9.616473 0 0 0-10.417846-0.890414 15.315124 15.315124 0 0 0-8.904142 13.445254 14.513751 14.513751 0 0 0 6.945231 14.157586 16.383621 16.383621 0 0 0 7.657562 3.027408 37.931644 37.931644 0 0 1 26.712426 17.808284 43.452212 43.452212 0 0 1 7.123313 15.137041z" fill="#1B4D9E" p-id="9778"></path></svg>